<mxfile host="app.diagrams.net" agent="Mozilla/5.0 (Windows NT 10.0; Win64; x64) AppleWebKit/537.36 (KHTML, like Gecko) Chrome/131.0.0.0 Safari/537.36 Edg/131.0.0.0" version="25.0.3" pages="2">
  <diagram name="ERD" id="cdSSShs4NnJKhbmgQN8T">
    <mxGraphModel dx="2681" dy="784" grid="1" gridSize="10" guides="1" tooltips="1" connect="1" arrows="1" fold="1" page="1" pageScale="1" pageWidth="850" pageHeight="1100" math="0" shadow="0" extFonts="Permanent Marker^https://fonts.googleapis.com/css?family=Permanent+Marker">
      <root>
        <mxCell id="0" />
        <mxCell id="1" parent="0" />
        <mxCell id="Lm2aUK_gfq5kiJsOKqdE-2" value="Member" style="whiteSpace=wrap;html=1;align=center;" parent="1" vertex="1">
          <mxGeometry x="829" y="165" width="100" height="40" as="geometry" />
        </mxCell>
        <mxCell id="Lm2aUK_gfq5kiJsOKqdE-11" value="MemberID " style="ellipse;whiteSpace=wrap;html=1;align=center;fontStyle=4;" parent="1" vertex="1">
          <mxGeometry x="729" y="85" width="100" height="40" as="geometry" />
        </mxCell>
        <mxCell id="Lm2aUK_gfq5kiJsOKqdE-13" value="" style="endArrow=none;html=1;rounded=0;exitX=0.5;exitY=1;exitDx=0;exitDy=0;entryX=0;entryY=0;entryDx=0;entryDy=0;" parent="1" source="Lm2aUK_gfq5kiJsOKqdE-11" target="Lm2aUK_gfq5kiJsOKqdE-2" edge="1">
          <mxGeometry relative="1" as="geometry">
            <mxPoint x="589" y="305" as="sourcePoint" />
            <mxPoint x="749" y="305" as="targetPoint" />
          </mxGeometry>
        </mxCell>
        <mxCell id="Lm2aUK_gfq5kiJsOKqdE-14" value="Name" style="ellipse;whiteSpace=wrap;html=1;align=center;" parent="1" vertex="1">
          <mxGeometry x="849" y="85" width="100" height="40" as="geometry" />
        </mxCell>
        <mxCell id="Lm2aUK_gfq5kiJsOKqdE-15" value="" style="endArrow=none;html=1;rounded=0;entryX=0.25;entryY=0;entryDx=0;entryDy=0;" parent="1" source="Lm2aUK_gfq5kiJsOKqdE-14" target="Lm2aUK_gfq5kiJsOKqdE-2" edge="1">
          <mxGeometry relative="1" as="geometry">
            <mxPoint x="789" y="135" as="sourcePoint" />
            <mxPoint x="839" y="175" as="targetPoint" />
          </mxGeometry>
        </mxCell>
        <mxCell id="Lm2aUK_gfq5kiJsOKqdE-16" value="Email" style="ellipse;whiteSpace=wrap;html=1;align=center;" parent="1" vertex="1">
          <mxGeometry x="958" y="85" width="100" height="40" as="geometry" />
        </mxCell>
        <mxCell id="Lm2aUK_gfq5kiJsOKqdE-17" value="" style="endArrow=none;html=1;rounded=0;entryX=0.5;entryY=0;entryDx=0;entryDy=0;" parent="1" source="Lm2aUK_gfq5kiJsOKqdE-16" target="Lm2aUK_gfq5kiJsOKqdE-2" edge="1">
          <mxGeometry relative="1" as="geometry">
            <mxPoint x="898" y="135" as="sourcePoint" />
            <mxPoint x="949" y="168" as="targetPoint" />
          </mxGeometry>
        </mxCell>
        <mxCell id="Lm2aUK_gfq5kiJsOKqdE-18" value="" style="endArrow=none;html=1;rounded=0;entryX=1;entryY=0.25;entryDx=0;entryDy=0;" parent="1" source="Lm2aUK_gfq5kiJsOKqdE-19" target="Lm2aUK_gfq5kiJsOKqdE-2" edge="1">
          <mxGeometry relative="1" as="geometry">
            <mxPoint x="908" y="145" as="sourcePoint" />
            <mxPoint x="873" y="177" as="targetPoint" />
          </mxGeometry>
        </mxCell>
        <mxCell id="Lm2aUK_gfq5kiJsOKqdE-19" value="PhoneNumber" style="ellipse;whiteSpace=wrap;html=1;align=center;" parent="1" vertex="1">
          <mxGeometry x="989" y="135" width="100" height="40" as="geometry" />
        </mxCell>
        <mxCell id="Lm2aUK_gfq5kiJsOKqdE-20" value="Address" style="ellipse;whiteSpace=wrap;html=1;align=center;" parent="1" vertex="1">
          <mxGeometry x="989" y="195" width="100" height="40" as="geometry" />
        </mxCell>
        <mxCell id="Lm2aUK_gfq5kiJsOKqdE-21" value="" style="endArrow=none;html=1;rounded=0;" parent="1" source="Lm2aUK_gfq5kiJsOKqdE-20" target="Lm2aUK_gfq5kiJsOKqdE-2" edge="1">
          <mxGeometry relative="1" as="geometry">
            <mxPoint x="1002" y="171" as="sourcePoint" />
            <mxPoint x="883" y="187" as="targetPoint" />
          </mxGeometry>
        </mxCell>
        <mxCell id="Lm2aUK_gfq5kiJsOKqdE-22" value="JoinDate" style="ellipse;whiteSpace=wrap;html=1;align=center;" parent="1" vertex="1">
          <mxGeometry x="1020" y="440" width="100" height="40" as="geometry" />
        </mxCell>
        <mxCell id="Lm2aUK_gfq5kiJsOKqdE-24" value="" style="endArrow=none;html=1;rounded=0;exitX=0.5;exitY=0;exitDx=0;exitDy=0;entryX=0.852;entryY=0.681;entryDx=0;entryDy=0;entryPerimeter=0;" parent="1" source="Lm2aUK_gfq5kiJsOKqdE-22" target="Lm2aUK_gfq5kiJsOKqdE-95" edge="1">
          <mxGeometry relative="1" as="geometry">
            <mxPoint x="723" y="682" as="sourcePoint" />
            <mxPoint x="709" y="780" as="targetPoint" />
          </mxGeometry>
        </mxCell>
        <mxCell id="Lm2aUK_gfq5kiJsOKqdE-25" value="ExpiryDate" style="ellipse;whiteSpace=wrap;html=1;align=center;" parent="1" vertex="1">
          <mxGeometry x="1050" y="320" width="100" height="40" as="geometry" />
        </mxCell>
        <mxCell id="Lm2aUK_gfq5kiJsOKqdE-26" value="" style="endArrow=none;html=1;rounded=0;exitX=0;exitY=0.5;exitDx=0;exitDy=0;entryX=1;entryY=0.5;entryDx=0;entryDy=0;" parent="1" source="Lm2aUK_gfq5kiJsOKqdE-25" target="Lm2aUK_gfq5kiJsOKqdE-95" edge="1">
          <mxGeometry relative="1" as="geometry">
            <mxPoint x="699" y="720" as="sourcePoint" />
            <mxPoint x="669" y="780" as="targetPoint" />
          </mxGeometry>
        </mxCell>
        <mxCell id="Lm2aUK_gfq5kiJsOKqdE-27" value="Membership" style="whiteSpace=wrap;html=1;align=center;" parent="1" vertex="1">
          <mxGeometry x="810" y="525" width="100" height="40" as="geometry" />
        </mxCell>
        <mxCell id="Lm2aUK_gfq5kiJsOKqdE-28" value="MembershipID  " style="ellipse;whiteSpace=wrap;html=1;align=center;fontStyle=4;" parent="1" vertex="1">
          <mxGeometry x="730" y="615" width="100" height="40" as="geometry" />
        </mxCell>
        <mxCell id="Lm2aUK_gfq5kiJsOKqdE-29" value="" style="endArrow=none;html=1;rounded=0;exitX=1;exitY=0;exitDx=0;exitDy=0;entryX=0.25;entryY=1;entryDx=0;entryDy=0;" parent="1" source="Lm2aUK_gfq5kiJsOKqdE-28" target="Lm2aUK_gfq5kiJsOKqdE-27" edge="1">
          <mxGeometry relative="1" as="geometry">
            <mxPoint x="620" y="825" as="sourcePoint" />
            <mxPoint x="860" y="685" as="targetPoint" />
          </mxGeometry>
        </mxCell>
        <mxCell id="Lm2aUK_gfq5kiJsOKqdE-30" value="Type " style="ellipse;whiteSpace=wrap;html=1;align=center;" parent="1" vertex="1">
          <mxGeometry x="880" y="605" width="100" height="40" as="geometry" />
        </mxCell>
        <mxCell id="Lm2aUK_gfq5kiJsOKqdE-31" value="" style="endArrow=none;html=1;rounded=0;entryX=0.5;entryY=1;entryDx=0;entryDy=0;" parent="1" source="Lm2aUK_gfq5kiJsOKqdE-30" target="Lm2aUK_gfq5kiJsOKqdE-27" edge="1">
          <mxGeometry relative="1" as="geometry">
            <mxPoint x="820" y="655" as="sourcePoint" />
            <mxPoint x="885" y="685" as="targetPoint" />
          </mxGeometry>
        </mxCell>
        <mxCell id="Lm2aUK_gfq5kiJsOKqdE-32" value="Cost" style="ellipse;whiteSpace=wrap;html=1;align=center;" parent="1" vertex="1">
          <mxGeometry x="989" y="605" width="100" height="40" as="geometry" />
        </mxCell>
        <mxCell id="Lm2aUK_gfq5kiJsOKqdE-33" value="" style="endArrow=none;html=1;rounded=0;entryX=1;entryY=1;entryDx=0;entryDy=0;" parent="1" source="Lm2aUK_gfq5kiJsOKqdE-32" target="Lm2aUK_gfq5kiJsOKqdE-27" edge="1">
          <mxGeometry relative="1" as="geometry">
            <mxPoint x="929" y="655" as="sourcePoint" />
            <mxPoint x="910" y="685" as="targetPoint" />
          </mxGeometry>
        </mxCell>
        <mxCell id="Lm2aUK_gfq5kiJsOKqdE-36" value="Coach" style="whiteSpace=wrap;html=1;align=center;" parent="1" vertex="1">
          <mxGeometry x="-190" y="165" width="100" height="40" as="geometry" />
        </mxCell>
        <mxCell id="Lm2aUK_gfq5kiJsOKqdE-37" value="CoachID " style="ellipse;whiteSpace=wrap;html=1;align=center;fontStyle=4;" parent="1" vertex="1">
          <mxGeometry x="-470" y="60" width="100" height="40" as="geometry" />
        </mxCell>
        <mxCell id="Lm2aUK_gfq5kiJsOKqdE-38" value="" style="endArrow=none;html=1;rounded=0;exitX=0.5;exitY=1;exitDx=0;exitDy=0;entryX=0;entryY=0;entryDx=0;entryDy=0;" parent="1" source="Lm2aUK_gfq5kiJsOKqdE-37" target="Lm2aUK_gfq5kiJsOKqdE-36" edge="1">
          <mxGeometry relative="1" as="geometry">
            <mxPoint x="-520" y="270" as="sourcePoint" />
            <mxPoint x="-360" y="270" as="targetPoint" />
          </mxGeometry>
        </mxCell>
        <mxCell id="Lm2aUK_gfq5kiJsOKqdE-39" value="Name" style="ellipse;whiteSpace=wrap;html=1;align=center;" parent="1" vertex="1">
          <mxGeometry x="-350" y="60" width="100" height="40" as="geometry" />
        </mxCell>
        <mxCell id="Lm2aUK_gfq5kiJsOKqdE-40" value="" style="endArrow=none;html=1;rounded=0;entryX=0.25;entryY=0;entryDx=0;entryDy=0;" parent="1" source="Lm2aUK_gfq5kiJsOKqdE-39" target="Lm2aUK_gfq5kiJsOKqdE-36" edge="1">
          <mxGeometry relative="1" as="geometry">
            <mxPoint x="-320" y="100" as="sourcePoint" />
            <mxPoint x="-270" y="140" as="targetPoint" />
          </mxGeometry>
        </mxCell>
        <mxCell id="Lm2aUK_gfq5kiJsOKqdE-41" value="Email" style="ellipse;whiteSpace=wrap;html=1;align=center;" parent="1" vertex="1">
          <mxGeometry x="-271" y="10" width="100" height="40" as="geometry" />
        </mxCell>
        <mxCell id="Lm2aUK_gfq5kiJsOKqdE-42" value="" style="endArrow=none;html=1;rounded=0;entryX=0.5;entryY=0;entryDx=0;entryDy=0;" parent="1" source="Lm2aUK_gfq5kiJsOKqdE-41" target="Lm2aUK_gfq5kiJsOKqdE-36" edge="1">
          <mxGeometry relative="1" as="geometry">
            <mxPoint x="-211" y="100" as="sourcePoint" />
            <mxPoint x="-160" y="133" as="targetPoint" />
          </mxGeometry>
        </mxCell>
        <mxCell id="Lm2aUK_gfq5kiJsOKqdE-43" value="" style="endArrow=none;html=1;rounded=0;entryX=1;entryY=0.25;entryDx=0;entryDy=0;" parent="1" source="Lm2aUK_gfq5kiJsOKqdE-44" target="Lm2aUK_gfq5kiJsOKqdE-36" edge="1">
          <mxGeometry relative="1" as="geometry">
            <mxPoint x="-201" y="110" as="sourcePoint" />
            <mxPoint x="-236" y="142" as="targetPoint" />
          </mxGeometry>
        </mxCell>
        <mxCell id="Lm2aUK_gfq5kiJsOKqdE-44" value="PhoneNumber" style="ellipse;whiteSpace=wrap;html=1;align=center;" parent="1" vertex="1">
          <mxGeometry x="-160" y="20" width="100" height="40" as="geometry" />
        </mxCell>
        <mxCell id="Lm2aUK_gfq5kiJsOKqdE-46" value="Specialty" style="ellipse;whiteSpace=wrap;html=1;align=center;" parent="1" vertex="1">
          <mxGeometry x="-50" y="30" width="100" height="40" as="geometry" />
        </mxCell>
        <mxCell id="Lm2aUK_gfq5kiJsOKqdE-47" value="" style="endArrow=none;html=1;rounded=0;entryX=1;entryY=0.5;entryDx=0;entryDy=0;exitX=0;exitY=0;exitDx=0;exitDy=0;" parent="1" source="Lm2aUK_gfq5kiJsOKqdE-46" target="Lm2aUK_gfq5kiJsOKqdE-36" edge="1">
          <mxGeometry relative="1" as="geometry">
            <mxPoint x="-106" y="138" as="sourcePoint" />
            <mxPoint x="-170" y="150" as="targetPoint" />
          </mxGeometry>
        </mxCell>
        <mxCell id="Lm2aUK_gfq5kiJsOKqdE-49" value="Equipment" style="whiteSpace=wrap;html=1;align=center;" parent="1" vertex="1">
          <mxGeometry x="351" y="575" width="100" height="40" as="geometry" />
        </mxCell>
        <mxCell id="Lm2aUK_gfq5kiJsOKqdE-50" value="EquipmentID  " style="ellipse;whiteSpace=wrap;html=1;align=center;fontStyle=4;" parent="1" vertex="1">
          <mxGeometry x="101" y="640" width="100" height="40" as="geometry" />
        </mxCell>
        <mxCell id="Lm2aUK_gfq5kiJsOKqdE-51" value="" style="endArrow=none;html=1;rounded=0;exitX=0.5;exitY=1;exitDx=0;exitDy=0;" parent="1" source="Lm2aUK_gfq5kiJsOKqdE-50" edge="1">
          <mxGeometry relative="1" as="geometry">
            <mxPoint x="111" y="715" as="sourcePoint" />
            <mxPoint x="351" y="590" as="targetPoint" />
          </mxGeometry>
        </mxCell>
        <mxCell id="Lm2aUK_gfq5kiJsOKqdE-52" value="Name " style="ellipse;whiteSpace=wrap;html=1;align=center;" parent="1" vertex="1">
          <mxGeometry x="171" y="680" width="100" height="40" as="geometry" />
        </mxCell>
        <mxCell id="Lm2aUK_gfq5kiJsOKqdE-53" value="" style="endArrow=none;html=1;rounded=0;entryX=0;entryY=0.5;entryDx=0;entryDy=0;" parent="1" source="Lm2aUK_gfq5kiJsOKqdE-52" target="Lm2aUK_gfq5kiJsOKqdE-49" edge="1">
          <mxGeometry relative="1" as="geometry">
            <mxPoint x="311" y="545" as="sourcePoint" />
            <mxPoint x="361" y="585" as="targetPoint" />
          </mxGeometry>
        </mxCell>
        <mxCell id="Lm2aUK_gfq5kiJsOKqdE-54" value="" style="endArrow=none;html=1;rounded=0;entryX=0.887;entryY=0.996;entryDx=0;entryDy=0;entryPerimeter=0;" parent="1" source="Lm2aUK_gfq5kiJsOKqdE-55" target="Lm2aUK_gfq5kiJsOKqdE-49" edge="1">
          <mxGeometry relative="1" as="geometry">
            <mxPoint x="420" y="545" as="sourcePoint" />
            <mxPoint x="471" y="578" as="targetPoint" />
          </mxGeometry>
        </mxCell>
        <mxCell id="Lm2aUK_gfq5kiJsOKqdE-55" value="PurchaseDate" style="ellipse;whiteSpace=wrap;html=1;align=center;" parent="1" vertex="1">
          <mxGeometry x="479" y="660" width="100" height="40" as="geometry" />
        </mxCell>
        <mxCell id="Lm2aUK_gfq5kiJsOKqdE-56" value="LastMaintenanceDate" style="ellipse;whiteSpace=wrap;html=1;align=center;" parent="1" vertex="1">
          <mxGeometry x="291" y="700" width="130" height="40" as="geometry" />
        </mxCell>
        <mxCell id="Lm2aUK_gfq5kiJsOKqdE-57" value="Status" style="ellipse;whiteSpace=wrap;html=1;align=center;" parent="1" vertex="1">
          <mxGeometry x="421" y="720" width="130" height="40" as="geometry" />
        </mxCell>
        <mxCell id="Lm2aUK_gfq5kiJsOKqdE-58" value="" style="endArrow=none;html=1;rounded=0;" parent="1" source="Lm2aUK_gfq5kiJsOKqdE-56" target="Lm2aUK_gfq5kiJsOKqdE-49" edge="1">
          <mxGeometry relative="1" as="geometry">
            <mxPoint x="507.5" y="540" as="sourcePoint" />
            <mxPoint x="411.5" y="585" as="targetPoint" />
          </mxGeometry>
        </mxCell>
        <mxCell id="Lm2aUK_gfq5kiJsOKqdE-59" value="" style="endArrow=none;html=1;rounded=0;exitX=0;exitY=0;exitDx=0;exitDy=0;" parent="1" source="Lm2aUK_gfq5kiJsOKqdE-57" target="Lm2aUK_gfq5kiJsOKqdE-49" edge="1">
          <mxGeometry relative="1" as="geometry">
            <mxPoint x="502.5" y="578" as="sourcePoint" />
            <mxPoint x="461.5" y="591" as="targetPoint" />
          </mxGeometry>
        </mxCell>
        <mxCell id="Lm2aUK_gfq5kiJsOKqdE-60" value="Payment" style="whiteSpace=wrap;html=1;align=center;" parent="1" vertex="1">
          <mxGeometry x="280" y="135" width="100" height="40" as="geometry" />
        </mxCell>
        <mxCell id="Lm2aUK_gfq5kiJsOKqdE-61" value="PaymentID  " style="ellipse;whiteSpace=wrap;html=1;align=center;fontStyle=4;" parent="1" vertex="1">
          <mxGeometry x="140" y="25" width="100" height="40" as="geometry" />
        </mxCell>
        <mxCell id="Lm2aUK_gfq5kiJsOKqdE-62" value="Date" style="ellipse;whiteSpace=wrap;html=1;align=center;" parent="1" vertex="1">
          <mxGeometry x="270" y="15" width="100" height="40" as="geometry" />
        </mxCell>
        <mxCell id="Lm2aUK_gfq5kiJsOKqdE-63" value="" style="endArrow=none;html=1;rounded=0;entryX=0.25;entryY=0;entryDx=0;entryDy=0;" parent="1" source="Lm2aUK_gfq5kiJsOKqdE-62" target="Lm2aUK_gfq5kiJsOKqdE-60" edge="1">
          <mxGeometry relative="1" as="geometry">
            <mxPoint x="240" y="105" as="sourcePoint" />
            <mxPoint x="290" y="145" as="targetPoint" />
          </mxGeometry>
        </mxCell>
        <mxCell id="Lm2aUK_gfq5kiJsOKqdE-64" value="" style="endArrow=none;html=1;rounded=0;exitX=0.5;exitY=1;exitDx=0;exitDy=0;entryX=0;entryY=0;entryDx=0;entryDy=0;" parent="1" source="Lm2aUK_gfq5kiJsOKqdE-61" target="Lm2aUK_gfq5kiJsOKqdE-60" edge="1">
          <mxGeometry relative="1" as="geometry">
            <mxPoint x="40" y="275" as="sourcePoint" />
            <mxPoint x="200" y="275" as="targetPoint" />
          </mxGeometry>
        </mxCell>
        <mxCell id="Lm2aUK_gfq5kiJsOKqdE-65" value="" style="endArrow=none;html=1;rounded=0;entryX=0.5;entryY=0;entryDx=0;entryDy=0;" parent="1" source="Lm2aUK_gfq5kiJsOKqdE-66" target="Lm2aUK_gfq5kiJsOKqdE-60" edge="1">
          <mxGeometry relative="1" as="geometry">
            <mxPoint x="349" y="105" as="sourcePoint" />
            <mxPoint x="400" y="138" as="targetPoint" />
          </mxGeometry>
        </mxCell>
        <mxCell id="Lm2aUK_gfq5kiJsOKqdE-66" value="Amount" style="ellipse;whiteSpace=wrap;html=1;align=center;" parent="1" vertex="1">
          <mxGeometry x="389.5" y="10" width="100" height="40" as="geometry" />
        </mxCell>
        <mxCell id="Lm2aUK_gfq5kiJsOKqdE-67" value="PaymentMethod" style="ellipse;whiteSpace=wrap;html=1;align=center;" parent="1" vertex="1">
          <mxGeometry x="479" y="40" width="100" height="40" as="geometry" />
        </mxCell>
        <mxCell id="Lm2aUK_gfq5kiJsOKqdE-68" value="" style="endArrow=none;html=1;rounded=0;entryX=1;entryY=0.25;entryDx=0;entryDy=0;" parent="1" source="Lm2aUK_gfq5kiJsOKqdE-67" target="Lm2aUK_gfq5kiJsOKqdE-60" edge="1">
          <mxGeometry relative="1" as="geometry">
            <mxPoint x="359" y="115" as="sourcePoint" />
            <mxPoint x="324" y="147" as="targetPoint" />
          </mxGeometry>
        </mxCell>
        <mxCell id="Lm2aUK_gfq5kiJsOKqdE-83" value="Receptionist" style="whiteSpace=wrap;html=1;align=center;" parent="1" vertex="1">
          <mxGeometry x="-209" y="510" width="100" height="40" as="geometry" />
        </mxCell>
        <mxCell id="Lm2aUK_gfq5kiJsOKqdE-84" value="ReceptionistID  " style="ellipse;whiteSpace=wrap;html=1;align=center;fontStyle=4;" parent="1" vertex="1">
          <mxGeometry x="-425" y="400" width="100" height="40" as="geometry" />
        </mxCell>
        <mxCell id="Lm2aUK_gfq5kiJsOKqdE-85" value="" style="endArrow=none;html=1;rounded=0;exitX=0.5;exitY=1;exitDx=0;exitDy=0;entryX=0;entryY=0;entryDx=0;entryDy=0;" parent="1" source="Lm2aUK_gfq5kiJsOKqdE-84" target="Lm2aUK_gfq5kiJsOKqdE-83" edge="1">
          <mxGeometry relative="1" as="geometry">
            <mxPoint x="-449" y="650" as="sourcePoint" />
            <mxPoint x="-289" y="650" as="targetPoint" />
          </mxGeometry>
        </mxCell>
        <mxCell id="Lm2aUK_gfq5kiJsOKqdE-86" value="Name" style="ellipse;whiteSpace=wrap;html=1;align=center;" parent="1" vertex="1">
          <mxGeometry x="-330" y="350" width="100" height="40" as="geometry" />
        </mxCell>
        <mxCell id="Lm2aUK_gfq5kiJsOKqdE-87" value="" style="endArrow=none;html=1;rounded=0;entryX=0.25;entryY=0;entryDx=0;entryDy=0;" parent="1" source="Lm2aUK_gfq5kiJsOKqdE-86" target="Lm2aUK_gfq5kiJsOKqdE-83" edge="1">
          <mxGeometry relative="1" as="geometry">
            <mxPoint x="-249" y="480" as="sourcePoint" />
            <mxPoint x="-199" y="520" as="targetPoint" />
          </mxGeometry>
        </mxCell>
        <mxCell id="Lm2aUK_gfq5kiJsOKqdE-88" value="Email" style="ellipse;whiteSpace=wrap;html=1;align=center;" parent="1" vertex="1">
          <mxGeometry x="-479" y="480" width="100" height="40" as="geometry" />
        </mxCell>
        <mxCell id="Lm2aUK_gfq5kiJsOKqdE-89" value="" style="endArrow=none;html=1;rounded=0;entryX=0.5;entryY=0;entryDx=0;entryDy=0;" parent="1" source="Lm2aUK_gfq5kiJsOKqdE-88" target="Lm2aUK_gfq5kiJsOKqdE-83" edge="1">
          <mxGeometry relative="1" as="geometry">
            <mxPoint x="-140" y="480" as="sourcePoint" />
            <mxPoint x="-89" y="513" as="targetPoint" />
          </mxGeometry>
        </mxCell>
        <mxCell id="Lm2aUK_gfq5kiJsOKqdE-90" value="" style="endArrow=none;html=1;rounded=0;entryX=0;entryY=0.5;entryDx=0;entryDy=0;" parent="1" source="Lm2aUK_gfq5kiJsOKqdE-91" target="Lm2aUK_gfq5kiJsOKqdE-83" edge="1">
          <mxGeometry relative="1" as="geometry">
            <mxPoint x="-130" y="490" as="sourcePoint" />
            <mxPoint x="-165" y="522" as="targetPoint" />
          </mxGeometry>
        </mxCell>
        <mxCell id="Lm2aUK_gfq5kiJsOKqdE-91" value="PhoneNumber" style="ellipse;whiteSpace=wrap;html=1;align=center;" parent="1" vertex="1">
          <mxGeometry x="-448" y="530" width="100" height="40" as="geometry" />
        </mxCell>
        <mxCell id="Lm2aUK_gfq5kiJsOKqdE-95" value="Has" style="shape=rhombus;perimeter=rhombusPerimeter;whiteSpace=wrap;html=1;align=center;" parent="1" vertex="1">
          <mxGeometry x="819" y="340" width="120" height="60" as="geometry" />
        </mxCell>
        <mxCell id="Lm2aUK_gfq5kiJsOKqdE-96" value="" style="shape=link;html=1;rounded=0;entryX=0.5;entryY=0;entryDx=0;entryDy=0;exitX=0.5;exitY=1;exitDx=0;exitDy=0;" parent="1" source="Lm2aUK_gfq5kiJsOKqdE-95" target="Lm2aUK_gfq5kiJsOKqdE-27" edge="1">
          <mxGeometry relative="1" as="geometry">
            <mxPoint x="400" y="520" as="sourcePoint" />
            <mxPoint x="560" y="520" as="targetPoint" />
          </mxGeometry>
        </mxCell>
        <mxCell id="Lm2aUK_gfq5kiJsOKqdE-97" value="1" style="resizable=0;html=1;whiteSpace=wrap;align=right;verticalAlign=bottom;" parent="Lm2aUK_gfq5kiJsOKqdE-96" connectable="0" vertex="1">
          <mxGeometry x="1" relative="1" as="geometry">
            <mxPoint x="-10" y="-16" as="offset" />
          </mxGeometry>
        </mxCell>
        <mxCell id="Lm2aUK_gfq5kiJsOKqdE-98" value="" style="endArrow=none;html=1;rounded=0;exitX=0.5;exitY=1;exitDx=0;exitDy=0;entryX=0.5;entryY=0;entryDx=0;entryDy=0;" parent="1" source="Lm2aUK_gfq5kiJsOKqdE-2" target="Lm2aUK_gfq5kiJsOKqdE-95" edge="1">
          <mxGeometry relative="1" as="geometry">
            <mxPoint x="400" y="520" as="sourcePoint" />
            <mxPoint x="560" y="520" as="targetPoint" />
          </mxGeometry>
        </mxCell>
        <mxCell id="Lm2aUK_gfq5kiJsOKqdE-99" value="M" style="resizable=0;html=1;whiteSpace=wrap;align=left;verticalAlign=bottom;" parent="Lm2aUK_gfq5kiJsOKqdE-98" connectable="0" vertex="1">
          <mxGeometry x="-1" relative="1" as="geometry">
            <mxPoint x="11" y="25" as="offset" />
          </mxGeometry>
        </mxCell>
        <mxCell id="Lm2aUK_gfq5kiJsOKqdE-101" value="Make" style="shape=rhombus;perimeter=rhombusPerimeter;whiteSpace=wrap;html=1;align=center;" parent="1" vertex="1">
          <mxGeometry x="550" y="155" width="120" height="60" as="geometry" />
        </mxCell>
        <mxCell id="Lm2aUK_gfq5kiJsOKqdE-102" value="" style="endArrow=none;html=1;rounded=0;entryX=0;entryY=0.5;entryDx=0;entryDy=0;" parent="1" source="Lm2aUK_gfq5kiJsOKqdE-101" target="Lm2aUK_gfq5kiJsOKqdE-2" edge="1">
          <mxGeometry relative="1" as="geometry">
            <mxPoint x="400" y="380" as="sourcePoint" />
            <mxPoint x="560" y="380" as="targetPoint" />
          </mxGeometry>
        </mxCell>
        <mxCell id="Lm2aUK_gfq5kiJsOKqdE-103" value="1" style="resizable=0;html=1;whiteSpace=wrap;align=right;verticalAlign=bottom;" parent="Lm2aUK_gfq5kiJsOKqdE-102" connectable="0" vertex="1">
          <mxGeometry x="1" relative="1" as="geometry" />
        </mxCell>
        <mxCell id="Lm2aUK_gfq5kiJsOKqdE-104" value="" style="shape=link;html=1;rounded=0;exitX=1;exitY=0.5;exitDx=0;exitDy=0;entryX=0;entryY=0.5;entryDx=0;entryDy=0;" parent="1" source="Lm2aUK_gfq5kiJsOKqdE-60" target="Lm2aUK_gfq5kiJsOKqdE-101" edge="1">
          <mxGeometry relative="1" as="geometry">
            <mxPoint x="400" y="380" as="sourcePoint" />
            <mxPoint x="560" y="380" as="targetPoint" />
          </mxGeometry>
        </mxCell>
        <mxCell id="Lm2aUK_gfq5kiJsOKqdE-105" value="M" style="resizable=0;html=1;whiteSpace=wrap;align=left;verticalAlign=bottom;" parent="Lm2aUK_gfq5kiJsOKqdE-104" connectable="0" vertex="1">
          <mxGeometry x="-1" relative="1" as="geometry">
            <mxPoint x="10" y="35" as="offset" />
          </mxGeometry>
        </mxCell>
        <mxCell id="Lm2aUK_gfq5kiJsOKqdE-109" value="Train" style="shape=rhombus;perimeter=rhombusPerimeter;whiteSpace=wrap;html=1;align=center;" parent="1" vertex="1">
          <mxGeometry x="200" y="280" width="120" height="60" as="geometry" />
        </mxCell>
        <mxCell id="Lm2aUK_gfq5kiJsOKqdE-110" value="" style="shape=link;html=1;rounded=0;exitX=0;exitY=0.5;exitDx=0;exitDy=0;entryX=1;entryY=1;entryDx=0;entryDy=0;" parent="1" source="Lm2aUK_gfq5kiJsOKqdE-109" target="Lm2aUK_gfq5kiJsOKqdE-36" edge="1">
          <mxGeometry relative="1" as="geometry">
            <mxPoint x="400" y="380" as="sourcePoint" />
            <mxPoint x="150" y="220" as="targetPoint" />
          </mxGeometry>
        </mxCell>
        <mxCell id="Lm2aUK_gfq5kiJsOKqdE-111" value="M" style="resizable=0;html=1;whiteSpace=wrap;align=right;verticalAlign=bottom;" parent="Lm2aUK_gfq5kiJsOKqdE-110" connectable="0" vertex="1">
          <mxGeometry x="1" relative="1" as="geometry">
            <mxPoint x="40" as="offset" />
          </mxGeometry>
        </mxCell>
        <mxCell id="Lm2aUK_gfq5kiJsOKqdE-112" value="" style="endArrow=none;html=1;rounded=0;exitX=0;exitY=1;exitDx=0;exitDy=0;entryX=1;entryY=0.5;entryDx=0;entryDy=0;" parent="1" source="Lm2aUK_gfq5kiJsOKqdE-2" target="Lm2aUK_gfq5kiJsOKqdE-109" edge="1">
          <mxGeometry relative="1" as="geometry">
            <mxPoint x="400" y="380" as="sourcePoint" />
            <mxPoint x="560" y="380" as="targetPoint" />
          </mxGeometry>
        </mxCell>
        <mxCell id="Lm2aUK_gfq5kiJsOKqdE-113" value="M" style="resizable=0;html=1;whiteSpace=wrap;align=left;verticalAlign=bottom;" parent="Lm2aUK_gfq5kiJsOKqdE-112" connectable="0" vertex="1">
          <mxGeometry x="-1" relative="1" as="geometry">
            <mxPoint x="-19" y="25" as="offset" />
          </mxGeometry>
        </mxCell>
        <mxCell id="Lm2aUK_gfq5kiJsOKqdE-121" value="Track" style="shape=rhombus;perimeter=rhombusPerimeter;whiteSpace=wrap;html=1;align=center;" parent="1" vertex="1">
          <mxGeometry x="91" y="450" width="120" height="60" as="geometry" />
        </mxCell>
        <mxCell id="Lm2aUK_gfq5kiJsOKqdE-125" value="" style="shape=link;html=1;rounded=0;exitX=0;exitY=0;exitDx=0;exitDy=0;entryX=1;entryY=0.5;entryDx=0;entryDy=0;" parent="1" source="Lm2aUK_gfq5kiJsOKqdE-49" target="Lm2aUK_gfq5kiJsOKqdE-121" edge="1">
          <mxGeometry relative="1" as="geometry">
            <mxPoint x="341" y="490" as="sourcePoint" />
            <mxPoint x="501" y="490" as="targetPoint" />
          </mxGeometry>
        </mxCell>
        <mxCell id="Lm2aUK_gfq5kiJsOKqdE-126" value="M" style="resizable=0;html=1;whiteSpace=wrap;align=right;verticalAlign=bottom;" parent="Lm2aUK_gfq5kiJsOKqdE-125" connectable="0" vertex="1">
          <mxGeometry x="1" relative="1" as="geometry">
            <mxPoint x="144" y="80" as="offset" />
          </mxGeometry>
        </mxCell>
        <mxCell id="Lm2aUK_gfq5kiJsOKqdE-127" value="" style="endArrow=none;html=1;rounded=0;exitX=0;exitY=1;exitDx=0;exitDy=0;entryX=1;entryY=0.75;entryDx=0;entryDy=0;" parent="1" source="Lm2aUK_gfq5kiJsOKqdE-121" target="Lm2aUK_gfq5kiJsOKqdE-83" edge="1">
          <mxGeometry relative="1" as="geometry">
            <mxPoint x="341" y="490" as="sourcePoint" />
            <mxPoint x="501" y="490" as="targetPoint" />
          </mxGeometry>
        </mxCell>
        <mxCell id="Lm2aUK_gfq5kiJsOKqdE-128" value="M" style="resizable=0;html=1;whiteSpace=wrap;align=right;verticalAlign=bottom;" parent="Lm2aUK_gfq5kiJsOKqdE-127" connectable="0" vertex="1">
          <mxGeometry x="1" relative="1" as="geometry">
            <mxPoint x="40" y="-20" as="offset" />
          </mxGeometry>
        </mxCell>
      </root>
    </mxGraphModel>
  </diagram>
  <diagram name="Mapping" id="CVa96GitJDWlOyvL94Xh">
    <mxGraphModel dx="1865" dy="2002" grid="1" gridSize="10" guides="1" tooltips="1" connect="1" arrows="1" fold="1" page="1" pageScale="1" pageWidth="850" pageHeight="1100" math="0" shadow="0">
      <root>
        <mxCell id="0" />
        <mxCell id="1" parent="0" />
        <mxCell id="90JAvrCTqKOoeq1hsphq-1" value="" style="rounded=0;whiteSpace=wrap;html=1;" parent="1" vertex="1">
          <mxGeometry y="80" width="410" height="60" as="geometry" />
        </mxCell>
        <mxCell id="90JAvrCTqKOoeq1hsphq-2" value="Member" style="text;html=1;align=center;verticalAlign=middle;resizable=0;points=[];autosize=1;strokeColor=none;fillColor=none;" parent="1" vertex="1">
          <mxGeometry x="-10" y="40" width="70" height="30" as="geometry" />
        </mxCell>
        <mxCell id="90JAvrCTqKOoeq1hsphq-3" value="&lt;u&gt;MemberID&lt;/u&gt;" style="rounded=0;whiteSpace=wrap;html=1;" parent="1" vertex="1">
          <mxGeometry y="80" width="80" height="60" as="geometry" />
        </mxCell>
        <mxCell id="90JAvrCTqKOoeq1hsphq-4" value="Name" style="rounded=0;whiteSpace=wrap;html=1;" parent="1" vertex="1">
          <mxGeometry x="80" y="80" width="80" height="60" as="geometry" />
        </mxCell>
        <mxCell id="90JAvrCTqKOoeq1hsphq-5" value="Email" style="rounded=0;whiteSpace=wrap;html=1;" parent="1" vertex="1">
          <mxGeometry x="160" y="80" width="80" height="60" as="geometry" />
        </mxCell>
        <mxCell id="90JAvrCTqKOoeq1hsphq-6" value="PhoneNumber" style="rounded=0;whiteSpace=wrap;html=1;" parent="1" vertex="1">
          <mxGeometry x="240" y="80" width="90" height="60" as="geometry" />
        </mxCell>
        <mxCell id="90JAvrCTqKOoeq1hsphq-7" value="Address" style="rounded=0;whiteSpace=wrap;html=1;" parent="1" vertex="1">
          <mxGeometry x="330" y="80" width="80" height="60" as="geometry" />
        </mxCell>
        <mxCell id="90JAvrCTqKOoeq1hsphq-17" value="Name" style="rounded=0;whiteSpace=wrap;html=1;" parent="1" vertex="1">
          <mxGeometry x="80" y="212" width="80" height="60" as="geometry" />
        </mxCell>
        <mxCell id="90JAvrCTqKOoeq1hsphq-18" value="Email" style="rounded=0;whiteSpace=wrap;html=1;" parent="1" vertex="1">
          <mxGeometry x="160" y="212" width="80" height="60" as="geometry" />
        </mxCell>
        <mxCell id="90JAvrCTqKOoeq1hsphq-19" value="PhoneNumber" style="rounded=0;whiteSpace=wrap;html=1;" parent="1" vertex="1">
          <mxGeometry x="240" y="212" width="90" height="60" as="geometry" />
        </mxCell>
        <mxCell id="90JAvrCTqKOoeq1hsphq-20" value="Address" style="rounded=0;whiteSpace=wrap;html=1;" parent="1" vertex="1">
          <mxGeometry x="330" y="212" width="80" height="60" as="geometry" />
        </mxCell>
        <mxCell id="90JAvrCTqKOoeq1hsphq-21" value="&lt;u&gt;MemberID&lt;/u&gt;" style="rounded=0;whiteSpace=wrap;html=1;" parent="1" vertex="1">
          <mxGeometry y="212" width="80" height="60" as="geometry" />
        </mxCell>
        <mxCell id="90JAvrCTqKOoeq1hsphq-22" value="Coach" style="text;html=1;align=center;verticalAlign=middle;resizable=0;points=[];autosize=1;strokeColor=none;fillColor=none;" parent="1" vertex="1">
          <mxGeometry x="5" y="180" width="60" height="30" as="geometry" />
        </mxCell>
        <mxCell id="90JAvrCTqKOoeq1hsphq-23" value="" style="rounded=0;whiteSpace=wrap;html=1;" parent="1" vertex="1">
          <mxGeometry y="212" width="410" height="60" as="geometry" />
        </mxCell>
        <mxCell id="90JAvrCTqKOoeq1hsphq-24" value="&lt;u&gt;&lt;span style=&quot;text-wrap-mode: nowrap;&quot;&gt;Coach&lt;/span&gt;ID&lt;/u&gt;" style="rounded=0;whiteSpace=wrap;html=1;" parent="1" vertex="1">
          <mxGeometry y="212" width="80" height="60" as="geometry" />
        </mxCell>
        <mxCell id="90JAvrCTqKOoeq1hsphq-25" value="Name" style="rounded=0;whiteSpace=wrap;html=1;" parent="1" vertex="1">
          <mxGeometry x="80" y="212" width="80" height="60" as="geometry" />
        </mxCell>
        <mxCell id="90JAvrCTqKOoeq1hsphq-26" value="Email" style="rounded=0;whiteSpace=wrap;html=1;" parent="1" vertex="1">
          <mxGeometry x="160" y="212" width="80" height="60" as="geometry" />
        </mxCell>
        <mxCell id="90JAvrCTqKOoeq1hsphq-27" value="PhoneNumber" style="rounded=0;whiteSpace=wrap;html=1;" parent="1" vertex="1">
          <mxGeometry x="240" y="212" width="90" height="60" as="geometry" />
        </mxCell>
        <mxCell id="90JAvrCTqKOoeq1hsphq-28" value="Speicalty" style="rounded=0;whiteSpace=wrap;html=1;" parent="1" vertex="1">
          <mxGeometry x="330" y="212" width="80" height="60" as="geometry" />
        </mxCell>
        <mxCell id="90JAvrCTqKOoeq1hsphq-41" value="Name" style="rounded=0;whiteSpace=wrap;html=1;" parent="1" vertex="1">
          <mxGeometry x="80" y="332" width="80" height="60" as="geometry" />
        </mxCell>
        <mxCell id="90JAvrCTqKOoeq1hsphq-42" value="Email" style="rounded=0;whiteSpace=wrap;html=1;" parent="1" vertex="1">
          <mxGeometry x="160" y="332" width="80" height="60" as="geometry" />
        </mxCell>
        <mxCell id="90JAvrCTqKOoeq1hsphq-43" value="PhoneNumber" style="rounded=0;whiteSpace=wrap;html=1;" parent="1" vertex="1">
          <mxGeometry x="240" y="332" width="90" height="60" as="geometry" />
        </mxCell>
        <mxCell id="90JAvrCTqKOoeq1hsphq-45" value="&lt;u&gt;MemberID&lt;/u&gt;" style="rounded=0;whiteSpace=wrap;html=1;" parent="1" vertex="1">
          <mxGeometry y="332" width="80" height="60" as="geometry" />
        </mxCell>
        <mxCell id="90JAvrCTqKOoeq1hsphq-46" value="Receptionist" style="text;html=1;align=center;verticalAlign=middle;resizable=0;points=[];autosize=1;strokeColor=none;fillColor=none;" parent="1" vertex="1">
          <mxGeometry x="-10" y="300" width="90" height="30" as="geometry" />
        </mxCell>
        <mxCell id="90JAvrCTqKOoeq1hsphq-47" value="&lt;span style=&quot;text-wrap-mode: nowrap;&quot;&gt;Coach&lt;/span&gt;&lt;u&gt;ID&lt;/u&gt;" style="rounded=0;whiteSpace=wrap;html=1;" parent="1" vertex="1">
          <mxGeometry y="332" width="80" height="60" as="geometry" />
        </mxCell>
        <mxCell id="90JAvrCTqKOoeq1hsphq-48" value="Name" style="rounded=0;whiteSpace=wrap;html=1;" parent="1" vertex="1">
          <mxGeometry x="80" y="332" width="80" height="60" as="geometry" />
        </mxCell>
        <mxCell id="90JAvrCTqKOoeq1hsphq-49" value="Email" style="rounded=0;whiteSpace=wrap;html=1;" parent="1" vertex="1">
          <mxGeometry x="160" y="332" width="80" height="60" as="geometry" />
        </mxCell>
        <mxCell id="90JAvrCTqKOoeq1hsphq-50" value="PhoneNumber" style="rounded=0;whiteSpace=wrap;html=1;" parent="1" vertex="1">
          <mxGeometry x="240" y="332" width="90" height="60" as="geometry" />
        </mxCell>
        <mxCell id="90JAvrCTqKOoeq1hsphq-52" value="" style="rounded=0;whiteSpace=wrap;html=1;" parent="1" vertex="1">
          <mxGeometry y="332" width="350" height="60" as="geometry" />
        </mxCell>
        <mxCell id="90JAvrCTqKOoeq1hsphq-53" value="&lt;span style=&quot;text-wrap-mode: nowrap;&quot;&gt;&lt;u&gt;ReceptionistID&lt;/u&gt;&lt;/span&gt;" style="rounded=0;whiteSpace=wrap;html=1;" parent="1" vertex="1">
          <mxGeometry y="332" width="100" height="60" as="geometry" />
        </mxCell>
        <mxCell id="90JAvrCTqKOoeq1hsphq-54" value="Name" style="rounded=0;whiteSpace=wrap;html=1;" parent="1" vertex="1">
          <mxGeometry x="100" y="332" width="80" height="60" as="geometry" />
        </mxCell>
        <mxCell id="90JAvrCTqKOoeq1hsphq-55" value="Email" style="rounded=0;whiteSpace=wrap;html=1;" parent="1" vertex="1">
          <mxGeometry x="180" y="332" width="80" height="60" as="geometry" />
        </mxCell>
        <mxCell id="90JAvrCTqKOoeq1hsphq-56" value="PhoneNumber" style="rounded=0;whiteSpace=wrap;html=1;" parent="1" vertex="1">
          <mxGeometry x="260" y="332" width="90" height="60" as="geometry" />
        </mxCell>
        <mxCell id="90JAvrCTqKOoeq1hsphq-75" value="Name" style="rounded=0;whiteSpace=wrap;html=1;" parent="1" vertex="1">
          <mxGeometry x="85" y="462" width="80" height="60" as="geometry" />
        </mxCell>
        <mxCell id="90JAvrCTqKOoeq1hsphq-76" value="Email" style="rounded=0;whiteSpace=wrap;html=1;" parent="1" vertex="1">
          <mxGeometry x="165" y="462" width="80" height="60" as="geometry" />
        </mxCell>
        <mxCell id="90JAvrCTqKOoeq1hsphq-77" value="PhoneNumber" style="rounded=0;whiteSpace=wrap;html=1;" parent="1" vertex="1">
          <mxGeometry x="245" y="462" width="90" height="60" as="geometry" />
        </mxCell>
        <mxCell id="90JAvrCTqKOoeq1hsphq-78" value="Address" style="rounded=0;whiteSpace=wrap;html=1;" parent="1" vertex="1">
          <mxGeometry x="335" y="462" width="80" height="60" as="geometry" />
        </mxCell>
        <mxCell id="90JAvrCTqKOoeq1hsphq-79" value="&lt;u&gt;MemberID&lt;/u&gt;" style="rounded=0;whiteSpace=wrap;html=1;" parent="1" vertex="1">
          <mxGeometry x="5" y="462" width="80" height="60" as="geometry" />
        </mxCell>
        <mxCell id="90JAvrCTqKOoeq1hsphq-80" value="Equipment" style="text;html=1;align=center;verticalAlign=middle;resizable=0;points=[];autosize=1;strokeColor=none;fillColor=none;" parent="1" vertex="1">
          <mxGeometry y="430" width="80" height="30" as="geometry" />
        </mxCell>
        <mxCell id="90JAvrCTqKOoeq1hsphq-81" value="&lt;span style=&quot;text-wrap-mode: nowrap;&quot;&gt;Coach&lt;/span&gt;&lt;u&gt;ID&lt;/u&gt;" style="rounded=0;whiteSpace=wrap;html=1;" parent="1" vertex="1">
          <mxGeometry x="5" y="462" width="80" height="60" as="geometry" />
        </mxCell>
        <mxCell id="90JAvrCTqKOoeq1hsphq-82" value="Name" style="rounded=0;whiteSpace=wrap;html=1;" parent="1" vertex="1">
          <mxGeometry x="85" y="462" width="80" height="60" as="geometry" />
        </mxCell>
        <mxCell id="90JAvrCTqKOoeq1hsphq-83" value="Email" style="rounded=0;whiteSpace=wrap;html=1;" parent="1" vertex="1">
          <mxGeometry x="165" y="462" width="80" height="60" as="geometry" />
        </mxCell>
        <mxCell id="90JAvrCTqKOoeq1hsphq-84" value="PhoneNumber" style="rounded=0;whiteSpace=wrap;html=1;" parent="1" vertex="1">
          <mxGeometry x="245" y="462" width="90" height="60" as="geometry" />
        </mxCell>
        <mxCell id="90JAvrCTqKOoeq1hsphq-85" value="Speicalty" style="rounded=0;whiteSpace=wrap;html=1;" parent="1" vertex="1">
          <mxGeometry x="335" y="462" width="80" height="60" as="geometry" />
        </mxCell>
        <mxCell id="90JAvrCTqKOoeq1hsphq-86" value="" style="rounded=0;whiteSpace=wrap;html=1;" parent="1" vertex="1">
          <mxGeometry x="5" y="462" width="465" height="60" as="geometry" />
        </mxCell>
        <mxCell id="90JAvrCTqKOoeq1hsphq-87" value="&lt;u&gt;&lt;span style=&quot;text-wrap-mode: nowrap;&quot;&gt;Equipment&lt;/span&gt;&lt;span style=&quot;text-wrap-mode: nowrap;&quot;&gt;ID&lt;/span&gt;&lt;/u&gt;" style="rounded=0;whiteSpace=wrap;html=1;" parent="1" vertex="1">
          <mxGeometry x="5" y="462" width="100" height="60" as="geometry" />
        </mxCell>
        <mxCell id="90JAvrCTqKOoeq1hsphq-88" value="Name" style="rounded=0;whiteSpace=wrap;html=1;" parent="1" vertex="1">
          <mxGeometry x="105" y="462" width="80" height="60" as="geometry" />
        </mxCell>
        <mxCell id="90JAvrCTqKOoeq1hsphq-89" value="LastMaintanceDate" style="rounded=0;whiteSpace=wrap;html=1;" parent="1" vertex="1">
          <mxGeometry x="185" y="462" width="125" height="60" as="geometry" />
        </mxCell>
        <mxCell id="90JAvrCTqKOoeq1hsphq-91" value="Status" style="rounded=0;whiteSpace=wrap;html=1;" parent="1" vertex="1">
          <mxGeometry x="310" y="462" width="80" height="60" as="geometry" />
        </mxCell>
        <mxCell id="90JAvrCTqKOoeq1hsphq-92" value="PruchaseDate" style="rounded=0;whiteSpace=wrap;html=1;" parent="1" vertex="1">
          <mxGeometry x="390" y="462" width="80" height="60" as="geometry" />
        </mxCell>
        <mxCell id="90JAvrCTqKOoeq1hsphq-94" value="MemberShip" style="text;html=1;align=center;verticalAlign=middle;resizable=0;points=[];autosize=1;strokeColor=none;fillColor=none;" parent="1" vertex="1">
          <mxGeometry x="512.5" y="60" width="90" height="30" as="geometry" />
        </mxCell>
        <mxCell id="90JAvrCTqKOoeq1hsphq-95" value="&lt;u&gt;&lt;span style=&quot;text-wrap-mode: nowrap;&quot;&gt;MemberShip&lt;/span&gt;ID&lt;/u&gt;" style="rounded=0;whiteSpace=wrap;html=1;" parent="1" vertex="1">
          <mxGeometry x="502.5" y="92" width="100" height="60" as="geometry" />
        </mxCell>
        <mxCell id="90JAvrCTqKOoeq1hsphq-96" value="Type" style="rounded=0;whiteSpace=wrap;html=1;" parent="1" vertex="1">
          <mxGeometry x="602.5" y="92" width="80" height="60" as="geometry" />
        </mxCell>
        <mxCell id="90JAvrCTqKOoeq1hsphq-97" value="Cost" style="rounded=0;whiteSpace=wrap;html=1;" parent="1" vertex="1">
          <mxGeometry x="682.5" y="92" width="80" height="60" as="geometry" />
        </mxCell>
        <mxCell id="90JAvrCTqKOoeq1hsphq-113" value="" style="rounded=0;whiteSpace=wrap;html=1;" parent="1" vertex="1">
          <mxGeometry x="370" y="602" width="425" height="60" as="geometry" />
        </mxCell>
        <mxCell id="90JAvrCTqKOoeq1hsphq-114" value="Payment" style="text;html=1;align=center;verticalAlign=middle;resizable=0;points=[];autosize=1;strokeColor=none;fillColor=none;" parent="1" vertex="1">
          <mxGeometry x="370" y="570" width="70" height="30" as="geometry" />
        </mxCell>
        <mxCell id="90JAvrCTqKOoeq1hsphq-115" value="&lt;u&gt;&lt;span style=&quot;text-wrap-mode: nowrap;&quot;&gt;Payment&lt;/span&gt;ID&lt;/u&gt;" style="rounded=0;whiteSpace=wrap;html=1;" parent="1" vertex="1">
          <mxGeometry x="350" y="602" width="100" height="60" as="geometry" />
        </mxCell>
        <mxCell id="90JAvrCTqKOoeq1hsphq-116" value="Date" style="rounded=0;whiteSpace=wrap;html=1;" parent="1" vertex="1">
          <mxGeometry x="450" y="602" width="80" height="60" as="geometry" />
        </mxCell>
        <mxCell id="90JAvrCTqKOoeq1hsphq-117" value="Amount" style="rounded=0;whiteSpace=wrap;html=1;" parent="1" vertex="1">
          <mxGeometry x="530" y="602" width="80" height="60" as="geometry" />
        </mxCell>
        <mxCell id="90JAvrCTqKOoeq1hsphq-118" value="&lt;span style=&quot;text-wrap-mode: nowrap;&quot;&gt;PaymentMethod&lt;/span&gt;" style="rounded=0;whiteSpace=wrap;html=1;" parent="1" vertex="1">
          <mxGeometry x="610" y="602" width="105" height="60" as="geometry" />
        </mxCell>
        <mxCell id="90JAvrCTqKOoeq1hsphq-126" value="" style="rounded=0;whiteSpace=wrap;html=1;" parent="1" vertex="1">
          <mxGeometry x="320" y="-60" width="350" height="60" as="geometry" />
        </mxCell>
        <mxCell id="90JAvrCTqKOoeq1hsphq-127" value="Member has MemberShip" style="text;html=1;align=center;verticalAlign=middle;resizable=0;points=[];autosize=1;strokeColor=none;fillColor=none;" parent="1" vertex="1">
          <mxGeometry x="300" y="-90" width="160" height="30" as="geometry" />
        </mxCell>
        <mxCell id="90JAvrCTqKOoeq1hsphq-130" value="JoinDate" style="rounded=0;whiteSpace=wrap;html=1;" parent="1" vertex="1">
          <mxGeometry x="592.5" y="-60" width="80" height="60" as="geometry" />
        </mxCell>
        <mxCell id="90JAvrCTqKOoeq1hsphq-131" value="&lt;span style=&quot;text-wrap-mode: nowrap;&quot;&gt;ExpiryDate&lt;/span&gt;" style="rounded=0;whiteSpace=wrap;html=1;" parent="1" vertex="1">
          <mxGeometry x="487.5" y="-60" width="105" height="60" as="geometry" />
        </mxCell>
        <mxCell id="90JAvrCTqKOoeq1hsphq-137" style="edgeStyle=orthogonalEdgeStyle;rounded=0;orthogonalLoop=1;jettySize=auto;html=1;exitX=0.25;exitY=1;exitDx=0;exitDy=0;entryX=0.75;entryY=0;entryDx=0;entryDy=0;" parent="1" source="90JAvrCTqKOoeq1hsphq-132" target="90JAvrCTqKOoeq1hsphq-3" edge="1">
          <mxGeometry relative="1" as="geometry" />
        </mxCell>
        <mxCell id="90JAvrCTqKOoeq1hsphq-132" value="&lt;u&gt;MemberID&lt;/u&gt;" style="rounded=0;whiteSpace=wrap;html=1;" parent="1" vertex="1">
          <mxGeometry x="320" y="-60" width="80" height="60" as="geometry" />
        </mxCell>
        <mxCell id="90JAvrCTqKOoeq1hsphq-133" value="&lt;span style=&quot;text-wrap-mode: nowrap;&quot;&gt;MemberShip&lt;/span&gt;ID" style="rounded=0;whiteSpace=wrap;html=1;" parent="1" vertex="1">
          <mxGeometry x="400" y="-60" width="100" height="60" as="geometry" />
        </mxCell>
        <mxCell id="90JAvrCTqKOoeq1hsphq-136" style="edgeStyle=orthogonalEdgeStyle;rounded=0;orthogonalLoop=1;jettySize=auto;html=1;exitX=0.75;exitY=1;exitDx=0;exitDy=0;entryX=0.151;entryY=-0.019;entryDx=0;entryDy=0;entryPerimeter=0;" parent="1" source="90JAvrCTqKOoeq1hsphq-133" target="90JAvrCTqKOoeq1hsphq-95" edge="1">
          <mxGeometry relative="1" as="geometry" />
        </mxCell>
        <mxCell id="90JAvrCTqKOoeq1hsphq-139" style="edgeStyle=orthogonalEdgeStyle;rounded=0;orthogonalLoop=1;jettySize=auto;html=1;exitX=0.25;exitY=0;exitDx=0;exitDy=0;entryX=0.5;entryY=1;entryDx=0;entryDy=0;" parent="1" source="90JAvrCTqKOoeq1hsphq-138" target="90JAvrCTqKOoeq1hsphq-3" edge="1">
          <mxGeometry relative="1" as="geometry">
            <Array as="points">
              <mxPoint x="735" y="570" />
              <mxPoint x="660" y="570" />
              <mxPoint x="660" y="180" />
              <mxPoint x="40" y="180" />
            </Array>
          </mxGeometry>
        </mxCell>
        <mxCell id="90JAvrCTqKOoeq1hsphq-138" value="MemberID" style="rounded=0;whiteSpace=wrap;html=1;" parent="1" vertex="1">
          <mxGeometry x="715" y="602" width="80" height="60" as="geometry" />
        </mxCell>
        <mxCell id="90JAvrCTqKOoeq1hsphq-145" value="Receptionist Track Equipment" style="text;html=1;align=center;verticalAlign=middle;resizable=0;points=[];autosize=1;strokeColor=none;fillColor=none;" parent="1" vertex="1">
          <mxGeometry x="140" y="532" width="180" height="30" as="geometry" />
        </mxCell>
        <mxCell id="90JAvrCTqKOoeq1hsphq-159" style="edgeStyle=orthogonalEdgeStyle;rounded=0;orthogonalLoop=1;jettySize=auto;html=1;exitX=0.25;exitY=0;exitDx=0;exitDy=0;entryX=0;entryY=0.25;entryDx=0;entryDy=0;" parent="1" source="90JAvrCTqKOoeq1hsphq-152" target="90JAvrCTqKOoeq1hsphq-87" edge="1">
          <mxGeometry relative="1" as="geometry">
            <Array as="points">
              <mxPoint x="125" y="550" />
              <mxPoint x="-15" y="550" />
              <mxPoint x="-15" y="477" />
            </Array>
          </mxGeometry>
        </mxCell>
        <mxCell id="90JAvrCTqKOoeq1hsphq-152" value="&lt;u&gt;&lt;span style=&quot;text-wrap-mode: nowrap;&quot;&gt;Equipment&lt;/span&gt;&lt;span style=&quot;text-wrap-mode: nowrap;&quot;&gt;ID&lt;/span&gt;&lt;/u&gt;" style="rounded=0;whiteSpace=wrap;html=1;" parent="1" vertex="1">
          <mxGeometry x="100" y="570" width="100" height="60" as="geometry" />
        </mxCell>
        <mxCell id="90JAvrCTqKOoeq1hsphq-158" style="edgeStyle=orthogonalEdgeStyle;rounded=0;orthogonalLoop=1;jettySize=auto;html=1;exitX=0;exitY=0.25;exitDx=0;exitDy=0;entryX=0;entryY=0.25;entryDx=0;entryDy=0;" parent="1" source="90JAvrCTqKOoeq1hsphq-157" target="90JAvrCTqKOoeq1hsphq-53" edge="1">
          <mxGeometry relative="1" as="geometry">
            <Array as="points">
              <mxPoint x="-40" y="577" />
              <mxPoint x="-40" y="347" />
            </Array>
          </mxGeometry>
        </mxCell>
        <mxCell id="90JAvrCTqKOoeq1hsphq-157" value="&lt;span style=&quot;text-wrap-mode: nowrap;&quot;&gt;&lt;u&gt;ReceptionistID&lt;/u&gt;&lt;/span&gt;" style="rounded=0;whiteSpace=wrap;html=1;" parent="1" vertex="1">
          <mxGeometry y="570" width="100" height="60" as="geometry" />
        </mxCell>
        <mxCell id="90JAvrCTqKOoeq1hsphq-175" value="" style="rounded=0;whiteSpace=wrap;html=1;" parent="1" vertex="1">
          <mxGeometry x="5" y="-110" width="260" height="60" as="geometry" />
        </mxCell>
        <mxCell id="90JAvrCTqKOoeq1hsphq-178" value="Coach Train Member" style="text;html=1;align=center;verticalAlign=middle;resizable=0;points=[];autosize=1;strokeColor=none;fillColor=none;" parent="1" vertex="1">
          <mxGeometry x="5" y="-160" width="140" height="30" as="geometry" />
        </mxCell>
        <mxCell id="90JAvrCTqKOoeq1hsphq-182" style="edgeStyle=orthogonalEdgeStyle;rounded=0;orthogonalLoop=1;jettySize=auto;html=1;exitX=0.5;exitY=1;exitDx=0;exitDy=0;entryX=0;entryY=0.5;entryDx=0;entryDy=0;" parent="1" source="90JAvrCTqKOoeq1hsphq-179" target="90JAvrCTqKOoeq1hsphq-24" edge="1">
          <mxGeometry relative="1" as="geometry">
            <Array as="points">
              <mxPoint x="45" y="-30" />
              <mxPoint x="-70" y="-30" />
              <mxPoint x="-70" y="250" />
              <mxPoint y="250" />
            </Array>
          </mxGeometry>
        </mxCell>
        <mxCell id="90JAvrCTqKOoeq1hsphq-179" value="&lt;u&gt;&lt;span style=&quot;text-wrap-mode: nowrap;&quot;&gt;Coach&lt;/span&gt;ID&lt;/u&gt;" style="rounded=0;whiteSpace=wrap;html=1;" parent="1" vertex="1">
          <mxGeometry x="5" y="-110" width="80" height="60" as="geometry" />
        </mxCell>
        <mxCell id="90JAvrCTqKOoeq1hsphq-181" style="edgeStyle=orthogonalEdgeStyle;rounded=0;orthogonalLoop=1;jettySize=auto;html=1;exitX=0.75;exitY=0;exitDx=0;exitDy=0;entryX=0;entryY=0.5;entryDx=0;entryDy=0;" parent="1" source="90JAvrCTqKOoeq1hsphq-180" target="90JAvrCTqKOoeq1hsphq-3" edge="1">
          <mxGeometry relative="1" as="geometry" />
        </mxCell>
        <mxCell id="90JAvrCTqKOoeq1hsphq-180" value="&lt;u&gt;MemberID&lt;/u&gt;" style="rounded=0;whiteSpace=wrap;html=1;" parent="1" vertex="1">
          <mxGeometry x="85" y="-110" width="80" height="60" as="geometry" />
        </mxCell>
        <mxCell id="vKPv9tuC4pLpoOx6jFLg-1" value="Password" style="rounded=0;whiteSpace=wrap;html=1;" vertex="1" parent="1">
          <mxGeometry x="350" y="332" width="90" height="60" as="geometry" />
        </mxCell>
      </root>
    </mxGraphModel>
  </diagram>
</mxfile>
